<?xml version="1.0" encoding="UTF-8" standalone="no"?>
<svg
   xmlns:dc="http://purl.org/dc/elements/1.1/"
   xmlns:cc="http://creativecommons.org/ns#"
   xmlns:rdf="http://www.w3.org/1999/02/22-rdf-syntax-ns#"
   xmlns:svg="http://www.w3.org/2000/svg"
   xmlns="http://www.w3.org/2000/svg"
   viewBox="0 0 368.41333 177.8"
   height="177.8"
   width="368.41333"
   xml:space="preserve"
   id="svg2"
   version="1.1"><metadata
     id="metadata8"><rdf:RDF><cc:Work
         rdf:about=""><dc:format>image/svg+xml</dc:format><dc:type
           rdf:resource="http://purl.org/dc/dcmitype/StillImage" /></cc:Work></rdf:RDF></metadata><defs
     id="defs6" /><g
     transform="matrix(1.3333333,0,0,-1.3333333,0,177.8)"
     id="g10"><g
       transform="scale(0.1)"
       id="g12"><path
         id="path14"
         style="fill:#223a6d;fill-opacity:1;fill-rule:nonzero;stroke:none"
         d="m 737.195,667.215 c -13.297,18.707 -36.937,27.531 -61.011,27.531 -28.536,0 -57.063,-12.777 -57.063,-44.742 0,-69.863 165.289,-30.024 165.289,-153.984 0,-74.774 -59.047,-111.184 -127.426,-111.184 -43.281,0 -85.57,13.305 -114.097,47.25 l 46.734,45.246 c 15.246,-23.09 41.313,-36.375 68.859,-36.375 28.528,0 60.981,15.75 60.981,47.707 0,76.254 -165.266,32.449 -165.266,156.902 0,71.829 63.95,105.266 128.379,105.266 36.391,0 72.813,-10.324 99.852,-35.894 l -45.231,-47.723" /><path
         id="path16"
         style="fill:#223a6d;fill-opacity:1;fill-rule:nonzero;stroke:none"
         d="m 799.512,579.645 v 50.191 h 48.711 v 68.375 h 59.023 v -68.375 h 64.93 v -50.191 h -64.93 V 476.348 c 0,-23.602 6.883,-38.348 32.945,-38.348 10.329,0 24.61,1.973 31.985,7.375 V 395.66 c -12.293,-5.844 -32.973,-7.851 -46.735,-7.851 -62.472,0 -77.218,28.054 -77.218,83.625 v 108.211 h -48.711" /><path
         id="path18"
         style="fill:#223a6d;fill-opacity:1;fill-rule:nonzero;stroke:none"
         d="m 1161.82,499.469 h -12.32 c -32.46,0 -88.55,-2.481 -88.55,-36.391 0,-21.644 22.15,-30.992 41.32,-30.992 40.36,0 59.55,21.152 59.55,54.113 z m 3.45,-73.293 h -1.49 c -16.73,-26.539 -44.28,-38.367 -75.76,-38.367 -43.78,0 -86.08,24.093 -86.08,70.836 0,76.742 89.53,82.179 148.54,82.179 h 14.79 v 6.371 c 0,29.039 -22.64,44.258 -54.15,44.258 -24.57,0 -47.2,-9.836 -62.95,-24.582 l -30.99,30.988 c 26.1,26.575 62.98,37.887 100.34,37.887 100.87,0 100.87,-72.836 100.87,-106.273 V 393.688 h -53.12 v 32.488" /><path
         id="path20"
         style="fill:#223a6d;fill-opacity:1;fill-rule:nonzero;stroke:none"
         d="m 1270.35,629.836 h 59.03 v -37.395 h 1 c 12.76,27.047 38.84,43.305 69.85,43.305 7.34,0 14.22,-1.492 21.13,-3.484 v -57.051 c -9.84,2.465 -19.18,4.434 -28.53,4.434 -55.57,0 -63.45,-46.739 -63.45,-59.532 V 393.688 h -59.03 v 236.148" /><path
         id="path22"
         style="fill:#223a6d;fill-opacity:1;fill-rule:nonzero;stroke:none"
         d="m 1455.41,765.586 h 59.03 V 531.922 l 91.02,97.914 h 75.73 l -101.31,-107.242 107.7,-128.906 h -78.19 l -93.97,120.546 h -0.98 V 393.688 h -59.03 v 371.898" /><path
         id="path24"
         style="fill:#223a6d;fill-opacity:1;fill-rule:nonzero;stroke:none"
         d="m 1859.67,535.387 c -0.51,34.422 -23.15,56.066 -60.05,56.066 -34.9,0 -56.56,-22.117 -60.99,-56.066 z m -121.04,-44.258 c 3.94,-34.949 30.51,-56.086 63.44,-56.086 29.56,0 48.73,13.762 63.49,31.977 l 42.27,-31.977 c -27.52,-33.93 -62.45,-47.234 -99.8,-47.234 -71.36,0 -128.41,49.679 -128.41,123.925 0,74.317 57.05,124.012 128.41,124.012 65.86,0 110.62,-46.246 110.62,-128.41 v -16.207 h -180.02" /><path
         id="path26"
         style="fill:#223a6d;fill-opacity:1;fill-rule:nonzero;stroke:none"
         d="m 1927.75,629.836 h 64.92 l 65.93,-163.82 h 0.96 l 59.04,163.82 h 61.49 L 2068.41,351.855 c -17.23,-44.277 -37.85,-67.394 -90.01,-67.394 -15.24,0 -30.51,1.949 -45.24,5.93 l 7.37,53.089 c 9.36,-3.464 19.66,-5.894 30,-5.894 29.04,0 36.91,1.531 46.73,26.113 l 11.31,28.035 -100.82,238.102" /><path
         id="path28"
         style="fill:#e9a411;fill-opacity:1;fill-rule:nonzero;stroke:none"
         d="m 2179.9,872.184 v 6.89 L 866.086,934.359 768.426,1333.49 506.293,931.766 H 15.4609 L 343.484,615.055 C 343.484,615.055 1.32031,0.289062 0,0 c 241.277,201.199 446.645,227.512 446.645,227.512 0,0 -136.7,19.66 -295.629,-74.192 L 429.715,629.535 156.605,872.184 H 546.586 L 745.449,1202.77 815.094,872.184 H 2089.29" /><path
         id="path30"
         style="fill:#223a6d;fill-opacity:1;fill-rule:nonzero;stroke:none"
         d="m 2174.05,417.602 h 5.07 c 4.38,0 8.63,0.25 8.63,5.441 0,4.484 -3.88,4.996 -7.24,4.996 h -6.46 z m -4.91,14.468 h 12.22 c 7.64,0 11.3,-3.062 11.3,-9.238 0,-5.879 -3.73,-8.324 -8.56,-8.871 l 9.29,-14.289 h -5.27 l -8.77,13.937 h -5.3 v -13.937 h -4.91 z m 10.58,-39.914 c 12.65,0 22.75,10.278 22.75,23.668 0,13.395 -10.1,23.692 -22.75,23.692 -12.74,0 -22.79,-10.297 -22.79,-23.692 0,-13.39 10.05,-23.668 22.79,-23.668 z m 0,51.367 c 15.01,0 27.68,-11.91 27.68,-27.699 0,-15.765 -12.67,-27.695 -27.68,-27.695 -15.12,0 -27.7,11.93 -27.7,27.695 0,15.789 12.58,27.699 27.7,27.699" /><path
         id="path32"
         style="fill:#223a6d;fill-opacity:1;fill-rule:nonzero;stroke:none"
         d="m 551.312,251.66 h 19.653 v -70.18 h 88.422 v 70.18 h 19.652 V 86.0508 H 659.387 V 163.219 H 570.965 V 86.0508 H 551.312 V 251.66" /><path
         id="path34"
         style="fill:#223a6d;fill-opacity:1;fill-rule:nonzero;stroke:none"
         d="m 789.875,150.59 c -0.691,18.469 -12.863,30.89 -32.98,30.89 -20.133,0 -33.45,-12.421 -35.793,-30.89 z m 15.676,-44.668 C 792.672,89.2891 777.258,83.25 756.895,83.25 c -34.372,0 -55.411,25.711 -55.411,57.512 0,33.898 23.836,57.578 56.106,57.578 30.879,0 51.953,-21.09 51.953,-57.34 v -5.859 H 721.102 C 722.523,116.23 737,100.07 756.895,100.07 c 15.675,0 26.21,5.578 34.839,16.578 l 13.817,-10.726" /><path
         id="path36"
         style="fill:#223a6d;fill-opacity:1;fill-rule:nonzero;stroke:none"
         d="m 885.297,138.66 c -23.172,0 -38.152,-6.32 -38.152,-21.07 0,-13.77 10.293,-18.9181 24.093,-18.9181 21.074,0 31.836,15.1871 32.285,32.9761 v 7.012 z m -52.875,42.82 c 11.23,11.481 27.601,16.86 43.504,16.86 32.285,0 45.859,-15.5 45.859,-46.328 v -47.043 c 0,-6.2971 0.68,-13.2971 1.617,-18.9182 h -17.55 c -1.149,4.8906 -1.149,11.6484 -1.149,16.3712 h -0.484 C 896.98,91.1914 884.812,83.25 868.199,83.25 c -22.234,0 -40.687,11.1992 -40.687,32.5 0,36.262 42.113,38.34 68.984,38.34 h 7.027 v 3.301 c 0,15.879 -10.05,24.089 -27.128,24.089 -11.684,0 -23.852,-4.019 -32.497,-11.96 l -11.476,11.96" /><path
         id="path38"
         style="fill:#223a6d;fill-opacity:1;fill-rule:nonzero;stroke:none"
         d="m 952.195,169.52 c 0,10.089 -0.953,18.718 -0.953,25.968 h 17.309 c 0,-5.828 0.484,-11.906 0.484,-18.027 h 0.453 c 4.91,10.777 18.485,20.879 36.492,20.879 2.34,0 4.93,-0.262 7.49,-1.199 l -1.16,-18.481 c -3.04,0.949 -6.54,1.399 -9.84,1.399 -22.22,0 -32.029,-15.661 -32.029,-40.739 V 86.0508 H 952.195 V 169.52" /><path
         id="path40"
         style="fill:#223a6d;fill-opacity:1;fill-rule:nonzero;stroke:none"
         d="m 1033.61,195.488 h 18.23 V 86.0508 h -18.23 z m 9.11,56.172 c 7.47,0 13.33,-6.14 13.33,-13.359 0,-7.723 -5.6,-13.332 -13.33,-13.332 -7.72,0 -13.34,5.609 -13.34,13.332 0,7.219 5.83,13.359 13.34,13.359" /><path
         id="path42"
         style="fill:#223a6d;fill-opacity:1;fill-rule:nonzero;stroke:none"
         d="m 1083.15,169.52 c 0,10.089 -1,18.718 -1,25.968 h 17.32 c 0,-5.828 0.52,-11.906 0.52,-18.027 h 0.42 c 4.91,10.777 18.49,20.879 36.49,20.879 28.8,0 41.69,-18.281 41.69,-44.699 V 86.0508 h -18.26 v 65.6682 c 0,18.293 -7.98,29.761 -25.08,29.761 -23.59,0 -33.9,-17.082 -33.9,-42.16 V 86.0508 h -18.2 V 169.52" /><path
         id="path44"
         style="fill:#223a6d;fill-opacity:1;fill-rule:nonzero;stroke:none"
         d="m 1258.32,101.461 c 25.02,0 39.04,18.711 39.04,39.789 0,23.59 -15.9,40.23 -39.04,40.23 -22.94,0 -38.62,-17.769 -38.62,-40.718 0,-22.223 17.32,-39.301 38.62,-39.301 z m 57.3,-10.5196 c 0,-39.5195 -20.29,-61.0508 -58.69,-61.0508 -21.26,0 -39.26,5.6406 -54.75,20.7813 l 13.09,14.9765 c 11.48,-12.3867 23.86,-18.9179 40.73,-18.9179 32.7,0 41.36,21.0586 41.36,44.2109 v 14.0276 h -0.45 c -8.66,-14.0276 -24.08,-20.3479 -38.59,-20.3479 -34.39,0 -58.24,23.8669 -58.24,56.1409 0,35.789 23.37,57.578 58.24,57.578 14.71,0 31.35,-7.051 38.59,-21.539 h 0.45 v 18.687 h 18.26 V 90.9414" /><path
         id="path46"
         style="fill:#223a6d;fill-opacity:1;fill-rule:nonzero;stroke:none"
         d="m 1437.53,224.969 h -50.74 v 26.691 h 130.99 V 224.969 H 1467 V 86.0508 h -29.47 V 224.969" /><path
         id="path48"
         style="fill:#223a6d;fill-opacity:1;fill-rule:nonzero;stroke:none"
         d="m 1585.1,153.371 c -0.23,16.399 -10.99,26.688 -28.54,26.688 -16.58,0 -26.89,-10.539 -28.99,-26.688 z m -57.53,-21.031 c 1.88,-16.59 14.51,-26.692 30.19,-26.692 13.99,0 23.1,6.571 30.15,15.25 l 20.14,-15.25 c -13.13,-16.0777 -29.77,-22.398 -47.51,-22.398 -33.94,0 -61.05,23.609 -61.05,58.922 0,35.289 27.11,58.93 61.05,58.93 31.35,0 52.61,-21.993 52.61,-61.032 v -7.73 h -85.58" /><path
         id="path50"
         style="fill:#223a6d;fill-opacity:1;fill-rule:nonzero;stroke:none"
         d="m 1713.76,164.648 c -6.53,6.723 -13.8,11.161 -21.3,11.161 -20.59,0 -33,-16.09 -33,-33.637 0,-17.524 12.41,-33.684 33,-33.684 8.7,0 16.61,3.731 21.79,10.524 l 18.68,-20.1018 C 1721.49,87.4414 1702.32,83.25 1692.46,83.25 c -33.9,0 -61.02,23.609 -61.02,58.922 0,35.289 27.12,58.93 61.02,58.93 14.26,0 29.93,-5.122 40.76,-17.051 l -19.46,-19.403" /><path
         id="path52"
         style="fill:#223a6d;fill-opacity:1;fill-rule:nonzero;stroke:none"
         d="m 1780.4,182.648 h 0.45 c 4.43,9.34 15.68,18.454 33,18.454 30.19,0 40.92,-21.282 40.92,-44.204 V 86.0508 h -28.06 v 56.8012 c 0,12.418 -0.93,32.957 -20.62,32.957 -18.45,0 -25.69,-13.539 -25.69,-28.52 V 86.0508 h -28.08 V 255.039 h 28.08 v -72.391" /><path
         id="path54"
         style="fill:#223a6d;fill-opacity:1;fill-rule:nonzero;stroke:none"
         d="m 1883.76,198.34 h 26.66 v -18.039 h 0.49 c 5.17,11.199 15.7,20.801 34.38,20.801 30.22,0 40.92,-21.282 40.92,-44.204 V 86.0508 h -28.05 v 56.8012 c 0,12.418 -0.91,32.957 -20.59,32.957 -18.46,0 -25.69,-13.539 -25.69,-28.52 V 86.0508 h -28.12 V 198.34" /><path
         id="path56"
         style="fill:#223a6d;fill-opacity:1;fill-rule:nonzero;stroke:none"
         d="m 2068.98,108.488 c 20.62,0 33,16.16 33,33.684 0,17.547 -12.38,33.637 -33,33.637 -20.53,0 -32.94,-16.09 -32.94,-33.637 0,-17.524 12.41,-33.684 32.94,-33.684 z m 0,92.614 c 33.97,0 61.08,-23.641 61.08,-58.93 0,-35.313 -27.11,-58.922 -61.08,-58.922 -33.87,0 -61.05,23.609 -61.05,58.922 0,35.289 27.18,58.93 61.05,58.93" /><path
         id="path58"
         style="fill:#223a6d;fill-opacity:1;fill-rule:nonzero;stroke:none"
         d="m 2150.29,86.0508 h 28.0508 v 168.988 H 2150.29 Z" /><path
         id="path60"
         style="fill:#223a6d;fill-opacity:1;fill-rule:nonzero;stroke:none"
         d="m 2261.57,108.488 c 20.62,0 33.03,16.16 33.03,33.684 0,17.547 -12.41,33.637 -33.03,33.637 -20.56,0 -32.94,-16.09 -32.94,-33.637 0,-17.524 12.38,-33.684 32.94,-33.684 z m 0,92.614 c 33.96,0 61.08,-23.641 61.08,-58.93 0,-35.313 -27.12,-58.922 -61.08,-58.922 -33.91,0 -61.02,23.609 -61.02,58.922 0,35.289 27.11,58.93 61.02,58.93" /><path
         id="path62"
         style="fill:#223a6d;fill-opacity:1;fill-rule:nonzero;stroke:none"
         d="m 2368.99,142.41 c 0,-17.762 14,-32.5 32.97,-32.5 20.81,0 33.45,14.262 33.45,32.942 0,19.418 -12.9,32.957 -33.26,32.957 -19.61,0 -33.16,-13.539 -33.16,-33.399 z m 93.08,55.93 V 96.1016 c 0,-40.5 -19.68,-66.211 -63.41,-66.211 -20.81,0 -39.72,4.4805 -55.65,18.461 l 16.84,22.9375 c 11.18,-10.2774 22.91,-16.1094 38.62,-16.1094 27.08,0 35.52,15.3906 35.52,37.6484 v 8.1519 h -0.46 c -8.17,-10.9605 -22.68,-16.3589 -36.74,-16.3589 -33.68,0 -55.88,25.7309 -55.88,57.5509 0,33.219 20.78,58.93 55.43,58.93 15.7,0 30.41,-6.043 38.62,-19.622 h 0.45 v 16.86 h 26.66" /><path
         id="path64"
         style="fill:#223a6d;fill-opacity:1;fill-rule:nonzero;stroke:none"
         d="m 2490.06,198.34 h 28.05 V 86.0508 h -28.05 z m 13.83,54.91 c 10.25,0 18.23,-7.23 18.23,-16.84 0,-9.582 -7.98,-16.84 -18.23,-16.84 -10.31,0 -17.8,7.981 -17.8,16.84 0,8.942 7.49,16.84 17.8,16.84" /><path
         id="path66"
         style="fill:#223a6d;fill-opacity:1;fill-rule:nonzero;stroke:none"
         d="m 2628.06,153.371 c -0.19,16.399 -10.99,26.688 -28.53,26.688 -16.62,0 -26.93,-10.539 -29,-26.688 z m -57.53,-21.031 c 1.88,-16.59 14.48,-26.692 30.19,-26.692 14.03,0 23.14,6.571 30.19,15.25 l 20.1,-15.25 C 2637.89,89.5703 2621.28,83.25 2603.5,83.25 c -33.9,0 -61.02,23.609 -61.02,58.922 0,35.289 27.12,58.93 61.02,58.93 31.38,0 52.65,-21.993 52.65,-61.032 v -7.73 h -85.62" /><path
         id="path68"
         style="fill:#223a6d;fill-opacity:1;fill-rule:nonzero;stroke:none"
         d="m 2740.86,167.18 c -5.4,7.48 -12.38,11.48 -21.95,11.48 -7.53,0 -16.38,-3.531 -16.38,-11.91 0,-20.141 60.56,-3.77 60.56,-47.5 0,-26.6914 -25.53,-36 -48.44,-36 -17.3,0 -32.29,4.3984 -43.7,17.32 l 18.68,17.489 c 7.3,-7.969 14.74,-13.789 26.66,-13.789 8.18,0 18.72,3.98 18.72,12.851 0,23.188 -60.6,4.91 -60.6,47.719 0,25.058 22.52,36.262 45.18,36.262 14.96,0 30.86,-4.692 40.01,-17.051 l -18.74,-16.871" /></g></g></svg>