<svg xmlns:svg="http://www.w3.org/2000/svg" xmlns="http://www.w3.org/2000/svg" viewBox="0 0 631.3 430.3" height="430.3" width="631.3" xml:space="preserve" version="1.1"><style>.s0{fill:#d6332b;}.s1{fill:#908f92;}.s2{fill:#48638d;}</style><defs><clipPath clipPathUnits="userSpaceOnUse"><path d="M0 0H4734.7V3227H0Z"/></clipPath></defs><g transform="matrix(1.3333333,0,0,-1.3333333,0,430.26667)"><g transform="scale(0.1)"><g clip-path="url(#clipPath20)"><path d="m2826 1844.7c53.2 20.1 96.3 36.4 142.9 54-64.7-157.8-409.3-374.4-587.9-375.7 38.4 65.1 84.2 128.8 115.1 199.1 26.7 60.8 39.7 128.5 52.8 194.3 11.7 58.9-10.7 76.8-71.1 64.1-41-8.7-81.5-19.5-122.5-28.4-38.8-8.4-77.9-15.5-121.4-14.1 42.6 25.5 85.9 50 127.7 76.8 121.2 77.8 241.4 157.4 362.9 234.6 34.8 22.1 73.1 38.8 109.8 57.8 82.6 42.5 164.4 86.9 248.5 126.4 29 13.6 64.5 23.6 95.7 20.7 102.9-9.3 153.9 21.7 188.5 117.5 7.6 21 29.4 40 49.2 52.8 153 99 298.3 206.5 403.2 359 25.4 37.1 45 78.2 61.5 123.9-590.4-125.7-1057.5-451.7-1461.8-881.2 2-4.5 4-9 6.1-13.5 52.7 20.2 106 39.1 158 61 53.1 22.4 104.9 47.9 162.7 62.7-199-136-398-272.1-600.9-410.7-14.2 21.6-27 40.8-31.6 47.8 72.4 94.3 140.3 183.3 208.9 271.8 33.6 43.4 16.4 67.1-28 86.1-134.2 57.4-270.6 71.6-411.1 26.1-6.9-2.2-13.8-4.2-20.9-5.9-1-0.2-2.7 2.2-4.1 3.4 88.1 175.3 397.4 378.2 597.5 384.6-39.5-36.8-73.4-68.3-116.7-108.6 102.2-19.2 190.9-36.8 280.1-51.4 10.8-1.7 25.7 12 36.5 21.2 281 239.9 593 425.8 945.3 540.4 145.9 47.5 293.7 88.3 449.4 85.6 63.1-1.1 66.9-6.2 42.7-66.8-69.3-173-180.1-317.6-312.7-445.8-248.7-240.6-540.1-416.9-854.5-557.2-33.6-15-55.1-30.5-59.3-73-7.5-75.7-24.8-150.5-40.5-239.4" fill="#d6332b"/><path d="M626 727.9C657 692.8 691.9 674.9 733.9 656.7 703.2 486.3 805.6 392.6 945.2 324.2 1121.5 237.9 1311.6 198.4 1503.7 168.3c429.9-67.5 863.6-91.3 1297.9-87.6 479.9 4.1 959.7 20.1 1439.5 34.2 147.9 4.4 295.4 19.8 444.2 20C4599 124.7 4512.9 111.6 4426.4 105 4039.2 75.4 3652.2 41.7 3264.6 20.8 2796.1-4.5 2327-10.3 1858.3 23.7 1570.8 44.6 1284.8 74.4 1011.2 170.1 924.1 200.6 838.7 243 761.7 293.8 610.5 393.3 565.4 551.7 626 727.9M1612.1 1668.3 1612.1 1668.3c1.8-4.4 3.6-8.7 5.4-13.1 107.8 43.3 216.3 85 322.9 131.1 31.7 13.7 88.2 26.7 64.1 76-25.6 52.2-75 23.6-108.9 1.3-96-62.9-189.2-129.9-283.5-195.3M925.3 1037.5c-8.6-10.3-95.4-139.7-138.9-221.7 24.2 56.5 2.4-2.4-2.5-9.7-31 23.5-62.5 56.3-75.3 82.9-4.8 10 87.6 175.1 169 262.7 8 8.6 56.4-103.9 47.8-114.3zm60.2 224.2c77.3 74 159.6 143 244.1 209.7 163.7 129.3 328.6 277.4 496.9 380.5 67.1 48.3 135.7 93.1 213.1 124.3 49.2 19.9 113.1 0.1 150.1-47.2 44.4-56.7 40.7-121.2-20.8-162.9-56.8-38.6-120.8-68.2-184.8-94-128.6-52-267.1-84.6-387.6-150.6-176.7-96.9-333.4-216-465.8-359.8l-45.3 100.1" fill="#908f92"/><path d="m3208 2731.4c61.5-1.3 110.3-55.5 108.3-120.1-2-62.4-50.8-111.1-111.3-110.9-60.3 0.2-114.5 56.2-113.1 116.6 1.5 62.2 55.7 115.7 116.1 114.4" fill="#d6332b"/><path d="m100.4 1147.8c0 97.9 0 188.8 0 285.2 51.2 0 100.3 2.4 149-0.5 93.7-5.5 134.8-49.2 134.5-137.9-0.3-88.3-47.7-140.6-136.4-146.1-47.2-2.9-94.8-0.6-147.1-0.6" fill="#fff"/><path d="m313.6 1150.4c17.6 3.8 33 11.3 46.3 22.4 13.2 11.1 23.8 26 31.7 44.8 7.9 18.7 11.9 43.1 11.9 72.9 0 41.4-8.8 75-26.4 101.1-17.6 26-46.1 39-85.4 39H83.7v-285.9H258.1c19.4 0 37.9 1.9 55.5 5.7m-17.6 372.1c59.9 0 106.7-19.2 140.5-57.4 33.8-38.3 50.6-90.7 50.6-157.3 0-49.8-8.7-93.4-26-130.9-17.3-37.5-45.1-63.2-83.2-76.9v-2.3c18.2-4.6 33-12.3 44.5-23 11.5-10.7 20.5-23.5 27.3-38.4 6.8-14.9 11.7-31.6 15-50 3.2-18.3 5.7-37.5 7.5-57.4 1.2-19.9 2.1-40.2 2.7-60.8 0.6-20.7 2-41 4.4-60.9 2.3-19.9 5.7-38.8 10.1-56.8 4.4-18 11-33.9 19.8-47.7h-93.4c-5.9 8.4-9.8 19.9-11.9 34.5-2.1 14.6-3.4 30.8-4 48.8-0.6 18-1.2 37.3-1.8 58-0.6 20.7-2.4 40.9-5.3 60.9-2.3 19.9-5.3 38.8-8.8 56.8-3.5 18-9.1 33.6-16.7 47.1-7.6 13.4-17.6 24.1-29.9 32.2-12.3 8-28.8 12-49.3 12H83.7V702.5H0v819.9h295.9M674.9 909.8 674.9 909.8c7.4-28.8 17.7-52.9 30.7-72.2 13-19.4 28.3-34.2 45.9-44.4 17.5-10.2 36.1-15.4 55.7-15.4 19.6 0 38.1 5.2 55.7 15.4 17.5 10.2 32.8 25.1 45.9 44.4 13.1 19.3 23.3 43.4 30.7 72.2 7.4 28.9 11.2 61.8 11.2 98.9 0 37.1-3.7 70-11.2 98.9-7.4 28.8-17.7 53.1-30.7 72.8-13.1 19.8-28.4 34.8-45.9 45-17.5 10.2-36.1 15.4-55.7 15.4-19.6 0-38.2-5.1-55.7-15.4-17.5-10.3-32.8-25.3-45.9-45-13.1-19.7-23.3-44-30.7-72.8-7.4-28.8-11.2-61.8-11.2-98.9 0-37.1 3.7-70.1 11.2-98.9m-77.1 225c9.5 39.1 23.8 73.1 42.8 101.9 19 28.8 42.4 51.5 70.4 68.1 27.9 16.6 60 24.9 96.2 24.9 36.8 0 69-8.3 96.6-24.9 16.1-9.7 30.7-21.3 43.8-35.2 9.5-9.9 18.2-20.9 26.1-32.9 19-28.8 33.3-62.8 42.8-101.9 9.5-39.1 14.3-81.1 14.3-126.1 0-45-4.8-86.9-14.3-125.6-9.5-38.7-23.8-72.4-42.8-101.2-19-28.8-42.3-51.3-69.9-67.5-27.6-16.1-59.8-24.3-96.6-24.3-36.2 0-68.3 8.1-96.2 24.3-27.9 16.2-51.4 38.7-70.4 67.5-19 28.8-33.3 62.6-42.8 101.2-9.5 38.7-14.3 80.6-14.3 125.6 0 45 4.7 87.1 14.3 126.1M1406.2 1205.1c-17.7 21.3-41.5 32-71.4 32-25.5 0-46.8-6.7-63.9-20.1-17.1-13.5-30.9-31.2-41.1-53.3-10.2-22.1-17.6-47.6-22-76.4-4.5-28.8-6.6-58.6-6.6-89.4 0-28.4 2.3-56.1 7-82.9 4.7-26.9 12.1-50.7 22-71.7 10-20.9 23-37.7 39-50.3 16-12.6 35.1-18.9 57.3-18.9 34.9 0 62.1 13 81.8 39.1 19.6 26.1 31.7 62.8 36.1 110.2h72.2c-7.8-75.8-27.5-134.2-59.3-175.3-31.8-41.1-75.1-61.6-129.9-61.6-32.7 0-61.5 7.5-86.7 22.5-25.2 15-46.2 36.3-63.1 64-16.9 27.6-29.6 60.6-38.2 98.9-8.6 38.3-12.9 80.3-12.9 126.1 0 45.8 4.2 88.6 12.5 128.5 8.3 39.9 20.9 74.6 37.8 104.2 16.9 29.6 38 52.9 63.5 69.9 25.4 17 55 25.5 88.8 25.5 24.3 0 47.2-4.2 68.5-12.5 21.3-8.3 40.1-21.1 56.4-38.5 16.3-17.4 29.7-39.3 40.3-65.7 10.5-26.4 17.1-57.8 19.9-94.1h-73c-5.5 38.7-17.2 68.7-34.8 90M1696.5 1518.8v-485.7l210.2 259.5h101.5l-182.6-215.9 195.9-377.8h-96.2l-157.6 310.1-71.2-85V698.9h-75.7v819.9h75.7M2343.4 1135.4c-6.1 21.3-14.4 39.7-24.8 55.1-10.4 15.4-22.7 27.6-36.9 36.7-14.1 9-29.8 13.6-46.8 13.6-17.7 0-33.6-4.5-47.7-13.6-14.2-9.1-26.3-21.6-36.5-37.3-10.1-15.8-18.2-34.2-24-55.1-5.9-20.9-9.3-43.2-10.4-66.9h238.1c-1.1 23.7-4.7 46.2-10.8 67.5m16.4-393.2c-31-34.7-70-52.1-117-52.1-33.1 0-61.9 7.8-86.2 23.7-24.3 15.8-44.7 37.9-61.3 66.4-16.6 28.4-29 62.3-37.3 101.8-8.3 39.5-12.9 82.5-14 129.1 0 46.6 4.8 89.2 14.4 127.9 9.6 38.7 23.1 72.2 40.5 100.7 17.4 28.4 38 50.5 61.7 66.3 23.8 15.8 49.8 23.7 78.1 23.7 36.9 0 67.5-11.3 91.8-33.8 24.3-22.5 43.8-51.1 58.5-85.9 14.7-34.8 24.8-72.6 30.5-113.7 5.6-41 7.9-80.1 6.8-117.2h-310.2c-0.5-26.9 1.6-52.4 6.4-76.4 4.8-24.1 12.6-45.4 23.3-64 10.7-18.6 24.3-33.4 40.9-44.4 16.6-11.1 36.1-16.6 58.5-16.6 28.9 0 52.5 9.9 70.9 29.7 18.4 19.7 30.6 49.7 36.5 90h67.4c-9.1-68.7-29.2-120.4-60.1-155.2M2750 1296.2v-86.1h-91.7V841.5c0-11.5 0.7-20.7 2.2-27.6 1.5-6.9 4.3-12.3 8.5-16.1 4.2-3.8 9.9-6.3 17.4-7.4 7.5-1.2 17.1-1.7 29-1.7h34.8v-86.2h-57.9c-19.6 0-36.4 1.8-50.3 5.2-14 3.4-25.3 9.7-33.8 18.9-8.6 9.2-15 22.2-19.2 39-4.1 16.8-6.3 39.1-6.3 66.6v377.8h-78.3v86.2h78.3v178h75.8v-178h91.7" fill="#d6332b"/><path d="m3171 1522.5 200.4-689 201.3 689h115.8V702.5h-80.2v682.1h-1.8L3407.9 702.5h-72.1l-198.6 682.1h-1.8V702.5h-80.2v819.9h115.8M4119.4 1019.3 4119.4 1019.3c-9.1-9.4-21-16.3-35.7-20.6-14.8-4.3-30.3-7.9-46.5-10.6-16.1-2.7-32.5-5.9-48.9-9.4-16.5-3.5-31.2-9.2-44.3-17.1-13.1-7.9-23.7-19-31.9-33.6-8.2-14.6-12.4-34.4-12.4-59.5 0-16.5 2.4-30.4 7.3-41.8 4.8-11.4 11.1-20.6 18.8-27.7 7.7-7 16.6-12.1 26.8-15.3 10.2-3.2 21-4.7 32.4-4.7 23.9 0 44.3 4.5 61.3 13.5 17.1 9.1 31 20.4 41.7 34.2 10.8 13.8 18.7 28.7 23.9 44.8 5.1 16.1 7.7 31.2 7.7 45.4v102.6m117.5-313.9c-12.5-10.2-29.8-15.4-51.9-15.4-18.7 0-33.6 7.3-44.7 21.9-11.1 14.6-16.6 38.5-16.6 71.6-19.9-33.1-43-57-69.4-71.6-26.4-14.6-54.9-21.9-85.6-21.9-19.8 0-38.7 3.2-56.6 9.5-17.9 6.3-33.4 16.2-46.4 29.6-13 13.4-23.4 31-31.1 52.7-7.6 21.7-11.5 48-11.5 78.8 0 34.7 4.2 63.2 12.8 85.3 8.5 22.1 19.7 40 33.6 53.9 13.9 13.8 29.8 24.3 47.7 31.4 17.9 7.1 36.2 13 54.9 17.8 19.9 5.5 38.8 9.7 56.7 12.4 17.9 2.8 33.6 6.7 47.3 11.9 13.6 5.1 24.4 12.6 32.3 22.5 7.9 9.8 11.9 24.3 11.9 43.2 0 22.1-3 39.8-9 53.3-5.9 13.4-13.6 23.7-23 30.8-9.3 7.1-19.9 11.8-31.5 14.2-11.7 2.4-23.2 3.5-34.5 3.5-30.6 0-56.2-8.1-76.6-24.3-20.4-16.2-31.5-46.8-33.2-91.8h-72.4c1.1 37.9 6.8 69.9 17 96 10.2 26 23.9 47.1 40.9 63.4 17.1 16.2 36.5 27.8 58.3 34.9 21.9 7.1 45.3 10.7 70.3 10.7 19.8 0 39.6-2 59.2-5.9 19.6-3.9 37.3-12 53.2-24.2 15.9-12.2 28.7-29.3 38.3-51.4 9.7-22 14.5-50.8 14.5-86.2V847.4c0-23.6 1-40.9 3-52 2-11 8.6-16.5 20-16.5 6.2 0 13.6 1.5 22.1 4.7v-78.2M4399.2 1315.5v-97.1h1.8c31.5 74.2 81.4 111.3 149.6 111.3 30.3 0 55.5-5.5 75.7-16.6 20.2-11.1 36.5-26.5 49-46.2 12.5-19.8 21.2-43.2 26.3-70.5 5-27.2 7.6-57.4 7.6-90.6V703.1h-75.7v414.6c0 37.9-8.4 67.9-25 90-16.6 22.1-39.5 33.1-68.5 33.1-23.2 0-43.2-4.7-60.1-14.2-16.9-9.5-31-22.9-42.3-40.3-11.3-17.4-19.7-37.7-25.4-61-5.6-23.3-8.4-48.8-8.4-76.4V703.1h-75.7v612.4h71.3" fill="#48638d"/><path d="m2767.3 282.1h84.1c19.4 0 36.4 3.3 51 10 14.6 6.7 27 15.1 37.5 25.4 10.4 10.2 19.1 21.8 26.2 34.8 7 12.9 12.5 25.6 16.7 38 4.1 12.4 7 24.1 8.6 35.1 1.7 10.9 2.5 19.6 2.5 26.1 0 33.8-7.4 59.8-22.1 78.2-14.7 18.3-35.6 27.5-62.6 27.5h-84l-57.7-274.9M2768.9 612h141.2c49.6 0 87.1-13.4 112.6-40.1 25.5-26.8 38.3-67.1 38.3-121.1 0-11.5-1.2-24.3-3.7-38.5-2.5-14.2-6.3-28.6-11.3-43.1-5.1-14.6-11.3-28.6-18.9-42-7.5-13.5-16.5-25.3-26.9-35.3-11.5-11.1-22.6-20.7-33.4-28.8-10.8-8.1-22.8-14.8-36.1-20.2-13.3-5.4-28.5-9.3-45.6-11.9-17-2.5-37.6-3.7-61.7-3.7H2688L2768.9 612M3170.1 612 3170.1 612h67.4l-80.3-384.8h-67.4L3170.1 612M3571.7 227.2h-43.1v40.4h-1.1c-6.8-8.6-14.5-16-22.9-22.1-8.4-6.1-17.2-11.2-26.4-15.3-9.2-4.1-18.3-7.2-27.5-9.2-9.2-1.9-17.7-3-25.6-3-27.7 0-52.1 4.4-73.3 13-21.2 8.6-39 20.5-53.4 35.6-14.3 15.1-25.3 32.9-32.9 53.4-7.5 20.5-11.3 42.6-11.3 66.3 0 40.3 6 75.2 18.1 104.8 12.1 29.6 27.8 54.1 47.4 73.3 19.6 19.2 41.7 33.5 66.3 42.8 24.6 9.4 49.5 14 74.6 14 22.7 0 43.8-2.7 63.3-8.1 19.6-5.4 36.5-13.5 50.9-24.2 14.4-10.8 25.7-24.5 34-41 8.3-16.5 12.4-36.1 12.4-58.7h-67.3c-1.5 26.2-10.6 45.6-27.5 58.2-16.9 12.6-39.5 18.9-67.9 18.9-23 0-43-5.2-60.1-15.6-17.1-10.4-31.3-24.1-42.5-40.9-11.3-16.9-19.9-36-25.6-57.1-5.7-21.2-8.6-42.6-8.6-64.2 0-35.9 9.2-64.1 27.5-84.6 18.3-20.5 44.4-30.7 78.2-30.7 16.5 0 31.3 2.6 44.2 7.8 12.9 5.2 24.1 12.5 33.7 21.8 9.5 9.3 17.5 20.5 24 33.4 6.5 13 11.5 27.2 15.1 42.6h-105.6l10.8 51.2h165.5l-43.1-202.6M3740 612h67.4l-80.3-384.8h-67.4L3740 612M3850 612h316.9l-12.4-58.2h-122.3l-67.9-326.6h-67.4l67.9 326.6H3838.2L3850 612M4300.6 544.1h-1.1l-92.7-163.8h117.5L4300.6 544.1M4277.4 612h71.2l66.8-384.8h-68.5l-15.6 101.8h-153.1l-59.3-101.8h-72.2L4277.4 612M4541.2 612h67.4l-67.9-326.6h194l-11.8-58.2H4461.5L4541.2 612" fill="#d6332b"/></g></g></g></svg>