<?xml version="1.0" encoding="UTF-8" standalone="no"?>
<svg
   xmlns:dc="http://purl.org/dc/elements/1.1/"
   xmlns:cc="http://creativecommons.org/ns#"
   xmlns:rdf="http://www.w3.org/1999/02/22-rdf-syntax-ns#"
   xmlns:svg="http://www.w3.org/2000/svg"
   xmlns="http://www.w3.org/2000/svg"
   xmlns:sodipodi="http://sodipodi.sourceforge.net/DTD/sodipodi-0.dtd"
   xmlns:inkscape="http://www.inkscape.org/namespaces/inkscape"
   viewBox="0 0 631.29333 430.26666"
   height="430.26666"
   width="631.29333"
   xml:space="preserve"
   id="svg2"
   version="1.1"
   inkscape:version="0.91 r13725"
   sodipodi:docname="rocketman-fix.svg"><sodipodi:namedview
     pagecolor="#ffffff"
     bordercolor="#666666"
     borderopacity="1"
     objecttolerance="10"
     gridtolerance="10"
     guidetolerance="10"
     inkscape:pageopacity="0"
     inkscape:pageshadow="2"
     inkscape:window-width="1920"
     inkscape:window-height="1017"
     id="namedview3366"
     showgrid="false"
     inkscape:zoom="1.9708708"
     inkscape:cx="240.80665"
     inkscape:cy="154.24654"
     inkscape:window-x="1912"
     inkscape:window-y="-8"
     inkscape:window-maximized="1"
     inkscape:current-layer="svg2" /><metadata
     id="metadata8"><rdf:RDF><cc:Work
         rdf:about=""><dc:format>image/svg+xml</dc:format><dc:type
           rdf:resource="http://purl.org/dc/dcmitype/StillImage" /><dc:title></dc:title></cc:Work></rdf:RDF></metadata><defs
     id="defs6"><clipPath
       id="clipPath20"
       clipPathUnits="userSpaceOnUse"><path
         id="path18"
         d="M 0,0 H 4734.73 V 3227 H 0 Z" /></clipPath></defs><g
     transform="matrix(1.3333333,0,0,-1.3333333,0,430.26667)"
     id="g10"><g
       transform="scale(0.1)"
       id="g12"><g
         id="g14"><g
           clip-path="url(#clipPath20)"
           id="g16"><path
             id="path22"
             style="fill:#d6332b;fill-opacity:1;fill-rule:nonzero;stroke:none"
             d="m 2826.04,1844.67 c 53.16,20.1 96.31,36.39 142.91,53.97 -64.69,-157.82 -409.26,-374.36 -587.93,-375.71 38.42,65.1 84.22,128.79 115.12,199.05 26.72,60.82 39.7,128.45 52.77,194.27 11.68,58.91 -10.7,76.8 -71.07,64.07 -41,-8.68 -81.53,-19.55 -122.48,-28.44 -38.79,-8.42 -77.86,-15.51 -121.39,-14.12 42.6,25.51 85.88,49.96 127.66,76.78 121.23,77.83 241.38,157.38 362.93,234.59 34.8,22.11 73.08,38.83 109.84,57.77 82.62,42.54 164.43,86.86 248.46,126.39 29.04,13.63 64.47,23.57 95.72,20.74 102.89,-9.32 153.87,21.72 188.52,117.54 7.55,20.98 29.39,39.98 49.23,52.83 153.03,98.99 298.3,206.47 403.15,359.01 25.43,37.07 45.02,78.16 61.46,123.88 -590.41,-125.66 -1057.46,-451.72 -1461.85,-881.21 2.01,-4.51 4.04,-9.01 6.07,-13.5 52.72,20.2 106,39.05 157.99,61 53.09,22.42 104.88,47.93 162.68,62.74 -199.03,-136.02 -398.05,-272.08 -600.9,-410.67 -14.24,21.56 -27,40.84 -31.6,47.79 72.36,94.28 140.29,183.3 208.86,271.8 33.64,43.36 16.43,67.11 -27.97,86.12 -134.2,57.36 -270.58,71.58 -411.07,26.13 -6.88,-2.23 -13.81,-4.22 -20.86,-5.86 -1.05,-0.24 -2.71,2.21 -4.1,3.42 88.08,175.25 397.36,378.22 597.5,384.61 -39.55,-36.8 -73.42,-68.28 -116.74,-108.58 102.23,-19.2 190.94,-36.85 280.12,-51.37 10.82,-1.75 25.7,12 36.46,21.18 280.96,239.88 592.95,425.82 945.3,540.43 145.93,47.48 293.65,88.3 449.43,85.6 63.14,-1.09 66.91,-6.25 42.69,-66.8 -69.31,-173.04 -180.15,-317.61 -312.69,-445.82 -248.71,-240.62 -540.1,-416.87 -854.47,-557.17 -33.58,-15 -55.08,-30.51 -59.28,-73.02 -7.46,-75.75 -24.83,-150.49 -40.47,-239.44" /><path
             id="path24"
             style="fill:#908f92;fill-opacity:1;fill-rule:nonzero;stroke:none"
             d="M 625.996,727.859 C 656.992,692.84 691.855,674.871 733.945,656.68 703.203,486.309 805.625,392.559 945.176,324.238 1121.51,237.91 1311.63,198.379 1503.66,168.27 c 429.94,-67.5 863.59,-91.3091 1297.89,-87.5786 479.92,4.1406 959.72,20.1096 1439.49,34.2496 147.85,4.418 295.39,19.809 444.18,19.95 C 4598.95,124.73 4512.9,111.59 4426.37,104.961 4039.18,75.4102 3652.21,41.6797 3264.58,20.8008 2796.06,-4.51172 2327.04,-10.2695 1858.25,23.7109 1570.84,44.5508 1284.81,74.4219 1011.18,170.121 924.082,200.57 838.73,243.031 761.68,293.77 610.527,393.34 565.352,551.719 625.996,727.859" /><path
             id="path26"
             style="fill:#908f92;fill-opacity:1;fill-rule:nonzero;stroke:none"
             d="m 1612.06,1668.34 c 1.81,-4.37 3.61,-8.73 5.41,-13.06 107.79,43.34 216.29,85.02 322.89,131.07 31.72,13.69 88.22,26.7 64.14,75.98 -25.57,52.24 -74.96,23.55 -108.89,1.31 -95.96,-62.91 -189.22,-129.91 -283.55,-195.3 M 925.312,1037.52 c -8.613,-10.31 -95.41,-139.68 -138.945,-221.75 24.219,56.46 2.422,-2.372 -2.48,-9.668 -30.977,23.527 -62.539,56.328 -75.313,82.929 -4.785,9.961 87.598,175.059 168.985,262.749 7.988,8.59 56.367,-103.94 47.753,-114.26 z m 60.157,224.16 c 77.291,74.01 159.631,143.01 244.091,209.69 163.73,129.3 328.59,277.44 496.85,380.45 67.11,48.32 135.65,93.09 213.07,124.32 49.18,19.86 113.14,0.09 150.13,-47.17 44.4,-56.7 40.67,-121.19 -20.76,-162.89 -56.77,-38.56 -120.82,-68.17 -184.78,-94.04 -128.58,-52.04 -267.13,-84.56 -387.58,-150.61 -176.7,-96.89 -333.4,-216 -465.76,-359.81 l -45.261,100.06" /><path
             id="path28"
             style="fill:#d6332b;fill-opacity:1;fill-rule:nonzero;stroke:none"
             d="m 3208.01,2731.43 c 61.51,-1.29 110.33,-55.47 108.28,-120.11 -1.99,-62.44 -50.84,-111.14 -111.27,-110.94 -60.27,0.19 -114.53,56.15 -113.12,116.64 1.46,62.21 55.74,115.68 116.11,114.41" /><path
             id="path30"
             style="fill:#ffffff;fill-opacity:0;fill-rule:nonzero;stroke:none"
             d="m 100.43,1147.82 c 0,97.89 0,188.8 0,285.15 51.172,0 100.273,2.37 149.043,-0.52 93.711,-5.55 134.785,-49.17 134.492,-137.93 -0.293,-88.31 -47.735,-140.63 -136.426,-146.14 -47.227,-2.93 -94.766,-0.56 -147.109,-0.56" /><path
             id="path32"
             style="fill:#d6332b;fill-opacity:1;fill-rule:nonzero;stroke:none"
             d="m 313.555,1150.39 c 17.617,3.83 33.047,11.31 46.269,22.41 13.203,11.07 23.77,26.03 31.699,44.76 7.93,18.73 11.875,43.05 11.875,72.91 0,41.35 -8.808,75.04 -26.425,101.08 -17.618,25.99 -46.094,39 -85.43,39 H 83.6719 v -285.9 H 258.066 c 19.375,0 37.872,1.94 55.489,5.74 m -17.617,372.07 c 59.902,0 106.738,-19.16 140.507,-57.44 33.75,-38.28 50.645,-90.7 50.645,-157.3 0,-49.77 -8.672,-93.42 -25.977,-130.9 -17.343,-37.5 -45.078,-63.16 -83.242,-76.95 v -2.27 c 18.184,-4.61 33.027,-12.3 44.473,-22.99 11.465,-10.74 20.547,-23.55 27.304,-38.45 6.758,-14.93 11.739,-31.59 14.981,-49.98 3.223,-18.34 5.723,-37.52 7.48,-57.41 1.172,-19.899 2.051,-40.168 2.657,-60.84 0.566,-20.68 2.031,-40.989 4.394,-60.891 2.344,-19.891 5.723,-38.848 10.117,-56.84 4.414,-17.969 11.016,-33.867 19.825,-47.66 h -93.36 c -5.879,8.422 -9.844,19.941 -11.875,34.461 -2.09,14.57 -3.398,30.82 -3.984,48.801 -0.586,18.008 -1.172,37.347 -1.758,58.008 -0.586,20.691 -2.363,40.921 -5.293,60.863 -2.344,19.879 -5.273,38.828 -8.809,56.84 -3.515,17.968 -9.101,33.648 -16.738,47.088 -7.617,13.38 -17.617,24.12 -29.941,32.15 -12.324,8.02 -28.77,12.03 -49.336,12.03 H 83.6719 V 702.539 H 0 v 819.921 h 295.938" /><path
             id="path34"
             style="fill:#d6332b;fill-opacity:1;fill-rule:nonzero;stroke:none"
             d="m 674.883,909.77 c 7.422,-28.829 17.656,-52.891 30.722,-72.231 13.047,-19.367 28.34,-34.199 45.86,-44.43 17.5,-10.25 36.074,-15.41 55.664,-15.41 19.59,0 38.144,5.16 55.664,15.41 17.5,10.231 32.793,25.063 45.859,44.43 13.067,19.34 23.301,43.402 30.723,72.231 7.422,28.851 11.152,61.8 11.152,98.93 0,37.07 -3.73,70.03 -11.152,98.86 -7.422,28.83 -17.656,53.11 -30.723,72.83 -13.066,19.77 -28.359,34.77 -45.859,45.04 -17.52,10.22 -36.074,15.37 -55.664,15.37 -19.59,0 -38.164,-5.15 -55.664,-15.37 -17.52,-10.27 -32.813,-25.27 -45.86,-45.04 -13.066,-19.72 -23.3,-44 -30.722,-72.83 -7.442,-28.83 -11.153,-61.79 -11.153,-98.86 0,-37.13 3.711,-70.079 11.153,-98.93 m -77.051,225.04 c 9.492,39.1 23.75,73.05 42.754,101.87 18.984,28.79 42.441,51.53 70.352,68.11 27.91,16.58 59.96,24.88 96.191,24.88 36.797,0 69.023,-8.3 96.621,-24.88 16.074,-9.67 30.664,-21.35 43.809,-35.16 9.453,-9.92 18.164,-20.88 26.113,-32.95 19.004,-28.82 33.268,-62.77 42.758,-101.87 9.49,-39.06 14.26,-81.13 14.26,-126.11 0,-45.04 -4.77,-86.899 -14.26,-125.61 -9.49,-38.668 -23.754,-72.399 -42.758,-101.231 -19.004,-28.828 -42.305,-51.347 -69.922,-67.5 -27.598,-16.148 -59.824,-24.277 -96.621,-24.277 -36.231,0 -68.281,8.129 -96.191,24.277 -27.911,16.153 -51.368,38.672 -70.352,67.5 -19.004,28.832 -33.262,62.563 -42.754,101.231 -9.512,38.711 -14.258,80.57 -14.258,125.61 0,44.98 4.746,87.05 14.258,126.11" /><path
             id="path36"
             style="fill:#d6332b;fill-opacity:1;fill-rule:nonzero;stroke:none"
             d="m 1406.24,1205.06 c -17.72,21.31 -41.51,31.98 -71.37,31.98 -25.47,0 -46.78,-6.72 -63.91,-20.12 -17.15,-13.46 -30.86,-31.19 -41.09,-53.32 -10.24,-22.09 -17.56,-47.58 -21.97,-76.41 -4.46,-28.83 -6.64,-58.61 -6.64,-89.409 0,-28.402 2.34,-56.082 7.03,-82.89 4.7,-26.86 12.05,-50.75 22.01,-71.661 9.96,-20.941 22.95,-37.742 39,-50.339 16.04,-12.61 35.12,-18.942 57.25,-18.942 34.88,0 62.11,13.031 81.76,39.063 19.62,26.078 31.66,62.769 36.09,110.179 h 72.21 c -7.76,-75.839 -27.52,-134.242 -59.34,-175.32 -31.82,-41.07 -75.12,-61.582 -129.88,-61.582 -32.66,0 -61.55,7.52 -86.72,22.52 -25.18,14.961 -46.21,36.312 -63.09,63.953 -16.87,27.609 -29.59,60.578 -38.16,98.898 -8.59,38.289 -12.87,80.32 -12.87,126.121 0,45.799 4.16,88.649 12.46,128.509 8.28,39.89 20.86,74.59 37.75,104.24 16.88,29.61 38.03,52.85 63.5,69.88 25.43,16.98 55.04,25.47 88.79,25.47 24.33,0 47.15,-4.16 68.47,-12.46 21.29,-8.28 40.1,-21.13 56.43,-38.49 16.31,-17.37 29.73,-39.28 40.25,-65.75 10.49,-26.42 17.13,-57.83 19.91,-94.14 h -73.03 c -5.53,38.67 -17.17,68.71 -34.84,90.02" /><path
             id="path38"
             style="fill:#d6332b;fill-opacity:1;fill-rule:nonzero;stroke:none"
             d="m 1696.47,1518.77 v -485.72 l 210.18,259.49 h 101.54 l -182.58,-215.88 195.94,-377.808 h -96.19 l -157.64,310.098 -71.25,-85.001 V 698.852 h -75.7 v 819.918 h 75.7" /><path
             id="path40"
             style="fill:#d6332b;fill-opacity:1;fill-rule:nonzero;stroke:none"
             d="m 2343.42,1135.41 c -6.15,21.31 -14.41,39.65 -24.84,55.08 -10.43,15.39 -22.74,27.64 -36.9,36.74 -14.14,9.02 -29.76,13.57 -46.85,13.57 -17.66,0 -33.57,-4.55 -47.72,-13.57 -14.18,-9.1 -26.32,-21.56 -36.48,-37.34 -10.14,-15.8 -18.18,-34.16 -24.04,-55.08 -5.88,-20.94 -9.34,-43.22 -10.41,-66.92 h 238.06 c -1.07,23.7 -4.68,46.2 -10.82,67.52 m 16.43,-393.219 c -31,-34.742 -70,-52.109 -117.01,-52.109 -33.15,0 -61.88,7.848 -86.19,23.668 -24.32,15.82 -44.75,37.891 -61.31,66.352 -16.58,28.398 -28.99,62.347 -37.29,101.839 -8.3,39.489 -12.95,82.5 -14.02,129.119 0,46.58 4.8,89.2 14.43,127.91 9.63,38.67 23.09,72.23 40.47,100.68 17.36,28.4 37.95,50.53 61.74,66.29 23.75,15.82 49.8,23.73 78.14,23.73 36.9,0 67.46,-11.27 91.78,-33.77 24.32,-22.52 43.79,-51.13 58.52,-85.86 14.68,-34.76 24.84,-72.65 30.47,-113.73 5.62,-41.03 7.85,-80.13 6.81,-117.22 h -310.21 c -0.55,-26.86 1.6,-52.352 6.38,-76.41 4.83,-24.141 12.58,-45.41 23.27,-63.969 10.68,-18.57 24.31,-33.352 40.87,-44.43 16.59,-11.09 36.1,-16.582 58.54,-16.582 28.87,0 52.5,9.883 70.94,29.653 18.43,19.699 30.56,49.699 36.46,90.019 h 67.35 c -9.13,-68.711 -29.16,-120.449 -60.14,-155.18" /><path
             id="path42"
             style="fill:#d6332b;fill-opacity:1;fill-rule:nonzero;stroke:none"
             d="m 2749.99,1296.23 v -86.15 h -91.74 V 841.512 c 0,-11.492 0.7,-20.731 2.2,-27.563 1.49,-6.91 4.32,-12.289 8.46,-16.109 4.16,-3.809 9.94,-6.27 17.36,-7.43 7.45,-1.172 17.07,-1.711 28.97,-1.711 h 34.75 v -86.16 h -57.91 c -19.59,0 -36.37,1.762 -50.32,5.203 -13.96,3.438 -25.27,9.738 -33.83,18.938 -8.63,9.199 -15.01,22.172 -19.17,39.031 -4.15,16.828 -6.26,39.059 -6.26,66.598 v 377.771 h -78.33 v 86.15 h 78.33 v 177.99 h 75.75 v -177.99 h 91.74" /><path
             id="path44"
             style="fill:#48638d;fill-opacity:1;fill-rule:nonzero;stroke:none"
             d="m 3170.96,1522.46 200.39,-688.999 201.27,688.999 h 115.82 V 702.539 h -80.17 v 682.131 h -1.82 L 3407.88,702.539 h -72.15 l -198.62,682.131 h -1.77 V 702.539 h -80.16 v 819.921 h 115.78" /><path
             id="path46"
             style="fill:#48638d;fill-opacity:1;fill-rule:nonzero;stroke:none"
             d="m 4119.44,1019.34 c -9.08,-9.45 -21.02,-16.33 -35.74,-20.629 -14.79,-4.332 -30.26,-7.891 -46.47,-10.602 -16.13,-2.75 -32.46,-5.937 -48.9,-9.449 -16.49,-3.519 -31.23,-9.238 -44.28,-17.109 -13.09,-7.852 -23.73,-19.031 -31.94,-33.563 -8.24,-14.566 -12.38,-34.367 -12.38,-59.547 0,-16.5 2.44,-30.429 7.25,-41.82 4.8,-11.379 11.07,-20.621 18.75,-27.711 7.65,-7.031 16.62,-12.148 26.81,-15.289 10.24,-3.191 21,-4.73 32.35,-4.73 23.85,0 44.27,4.507 61.31,13.539 17.05,9.062 30.95,20.441 41.72,34.191 10.76,13.75 18.73,28.68 23.86,44.789 5.08,16.11 7.66,31.231 7.66,45.371 v 102.559 m 117.48,-313.891 c -12.48,-10.25 -29.79,-15.367 -51.93,-15.367 -18.72,0 -33.62,7.309 -44.69,21.918 -11.06,14.609 -16.6,38.488 -16.6,71.621 -19.89,-33.133 -42.99,-57.012 -69.4,-71.621 -26.4,-14.609 -54.92,-21.918 -85.6,-21.918 -19.85,0 -38.73,3.188 -56.59,9.457 -17.89,6.301 -33.37,16.191 -46.42,29.641 -13.05,13.402 -23.4,30.98 -31.09,52.679 -7.64,21.743 -11.47,47.993 -11.47,78.77 0,34.742 4.22,63.16 12.77,85.293 8.52,22.066 19.69,40.039 33.62,53.867 13.88,13.811 29.8,24.281 47.67,31.371 17.91,7.14 36.21,13.02 54.92,17.79 19.89,5.51 38.75,9.67 56.65,12.42 17.85,2.79 33.63,6.7 47.26,11.86 13.59,5.11 24.36,12.63 32.34,22.52 7.91,9.84 11.94,24.27 11.94,43.22 0,22.09 -2.99,39.84 -8.97,53.28 -5.93,13.42 -13.61,23.67 -22.99,30.82 -9.33,7.09 -19.88,11.82 -31.48,14.22 -11.66,2.36 -23.16,3.51 -34.51,3.51 -30.61,0 -56.17,-8.06 -76.64,-24.27 -20.43,-16.19 -31.49,-46.8 -33.19,-91.78 h -72.38 c 1.12,37.89 6.84,69.86 17.03,95.96 10.24,26.03 23.85,47.13 40.86,63.38 17.05,16.15 36.47,27.79 58.32,34.92 21.88,7.09 45.28,10.66 70.28,10.66 19.84,0 39.59,-1.97 59.16,-5.94 19.61,-3.94 37.34,-12.03 53.22,-24.23 15.9,-12.19 28.65,-29.34 38.3,-51.43 9.67,-22.05 14.51,-50.78 14.51,-86.23 V 847.43 c 0,-23.641 0.96,-40.938 2.97,-52 1.97,-10.989 8.63,-16.539 20.02,-16.539 6.23,0 13.61,1.539 22.11,4.73 v -78.172" /><path
             id="path48"
             style="fill:#48638d;fill-opacity:1;fill-rule:nonzero;stroke:none"
             d="m 4399.15,1315.45 v -97.11 h 1.77 c 31.47,74.2 81.37,111.33 149.63,111.33 30.29,0 55.53,-5.55 75.72,-16.58 20.18,-11.09 36.53,-26.48 48.97,-46.19 12.48,-19.77 21.21,-43.24 26.27,-70.53 5.04,-27.19 7.56,-57.4 7.56,-90.57 V 703.09 h -75.67 v 414.57 c 0,37.89 -8.36,67.89 -24.98,90.02 -16.6,22.09 -39.47,33.12 -68.53,33.12 -23.19,0 -43.23,-4.72 -60.14,-14.21 -16.93,-9.46 -31.03,-22.91 -42.3,-40.26 -11.27,-17.36 -19.75,-37.69 -25.39,-60.97 -5.63,-23.34 -8.44,-48.77 -8.44,-76.41 V 703.09 h -75.74 v 612.36 h 71.27" /><path
             id="path50"
             style="fill:#d6332b;fill-opacity:1;fill-rule:nonzero;stroke:none"
             d="m 2767.25,282.129 h 84.06 c 19.44,0 36.39,3.301 50.96,9.961 14.55,6.66 27.03,15.101 37.46,25.351 10.41,10.2 19.14,21.84 26.15,34.77 6.98,12.93 12.54,25.609 16.7,37.988 4.12,12.422 7.02,24.063 8.6,35.063 1.66,10.949 2.46,19.648 2.46,26.09 0,33.808 -7.4,59.847 -22.09,78.199 -14.75,18.308 -35.59,27.5 -62.56,27.5 h -84.04 l -57.7,-274.922 M 2768.87,612 h 141.23 c 49.59,0 87.09,-13.398 112.62,-40.121 25.53,-26.82 38.26,-67.129 38.26,-121.059 0,-11.461 -1.23,-24.308 -3.75,-38.531 -2.54,-14.18 -6.29,-28.578 -11.31,-43.109 -5.06,-14.571 -11.34,-28.571 -18.88,-42.008 -7.54,-13.492 -16.55,-25.274 -26.94,-35.332 -11.52,-11.129 -22.63,-20.738 -33.42,-28.828 -10.78,-8.121 -22.81,-14.821 -36.11,-20.231 -13.3,-5.371 -28.47,-9.34 -45.57,-11.859 -17.05,-2.5 -37.63,-3.75 -61.67,-3.75 H 2687.99 L 2768.87,612" /><path
             id="path52"
             style="fill:#d6332b;fill-opacity:1;fill-rule:nonzero;stroke:none"
             d="m 3170.08,612 h 67.41 l -80.34,-384.828 h -67.36 L 3170.08,612" /><path
             id="path54"
             style="fill:#d6332b;fill-opacity:1;fill-rule:nonzero;stroke:none"
             d="m 3571.65,227.172 h -43.11 v 40.387 h -1.07 c -6.82,-8.59 -14.5,-16.008 -22.93,-22.09 -8.42,-6.09 -17.23,-11.207 -26.41,-15.328 -9.16,-4.121 -18.32,-7.231 -27.48,-9.2 -9.18,-1.929 -17.72,-2.972 -25.61,-2.972 -27.67,0 -52.09,4.363 -73.3,12.953 -21.21,8.629 -38.98,20.488 -53.38,35.57 -14.35,15.129 -25.31,32.867 -32.87,53.379 -7.54,20.488 -11.31,42.57 -11.31,66.289 0,40.27 6.04,75.192 18.07,104.84 12.05,29.648 27.81,54.059 47.4,73.301 19.63,19.219 41.7,33.519 66.33,42.847 24.61,9.364 49.49,14.012 74.63,14.012 22.66,0 43.77,-2.66 63.34,-8.09 19.59,-5.371 36.54,-13.48 50.94,-24.218 14.37,-10.801 25.7,-24.454 33.96,-40.993 8.26,-16.507 12.39,-36.097 12.39,-58.75 h -67.35 c -1.46,26.211 -10.64,45.641 -27.5,58.223 -16.91,12.559 -39.53,18.867 -67.93,18.867 -22.99,0 -43.03,-5.238 -60.1,-15.648 -17.07,-10.43 -31.26,-24.059 -42.55,-40.942 -11.35,-16.89 -19.89,-35.968 -25.63,-57.148 -5.72,-21.231 -8.65,-42.57 -8.65,-64.16 0,-35.949 9.18,-64.102 27.5,-84.602 18.32,-20.488 44.41,-30.73 78.18,-30.73 16.53,0 31.25,2.582 44.2,7.832 12.93,5.199 24.14,12.469 33.67,21.82 9.52,9.34 17.54,20.469 24.01,33.399 6.46,12.972 11.48,27.152 15.06,42.582 h -105.63 l 10.8,51.207 h 165.45 l -43.12,-202.637" /><path
             id="path56"
             style="fill:#d6332b;fill-opacity:1;fill-rule:nonzero;stroke:none"
             d="m 3740.02,612 h 67.41 l -80.32,-384.828 h -67.4 L 3740.02,612" /><path
             id="path58"
             style="fill:#d6332b;fill-opacity:1;fill-rule:nonzero;stroke:none"
             d="m 3850,612 h 316.94 l -12.42,-58.23 h -122.33 l -67.91,-326.598 h -67.4 l 67.91,326.598 H 3838.15 L 3850,612" /><path
             id="path60"
             style="fill:#d6332b;fill-opacity:1;fill-rule:nonzero;stroke:none"
             d="m 4300.61,544.07 h -1.09 l -92.7,-163.828 h 117.5 L 4300.61,544.07 M 4277.43,612 h 71.17 l 66.83,-384.828 h -68.47 l -15.65,101.84 h -153.06 l -59.3,-101.84 h -72.19 L 4277.43,612" /><path
             id="path62"
             style="fill:#d6332b;fill-opacity:1;fill-rule:nonzero;stroke:none"
             d="m 4541.22,612 h 67.4 l -67.93,-326.641 h 194.04 l -11.85,-58.187 H 4461.45 L 4541.22,612" /></g></g></g></g></svg>